<svg width="70" height="70" viewBox="0 0 70 70" fill="none" xmlns="http://www.w3.org/2000/svg">
<path fill-rule="evenodd" clip-rule="evenodd" d="M37.7889 22.3128C36.6005 20.6182 34.0935 20.6077 32.891 22.2923L26.3765 31.4185L25.3203 33.2669L25.3525 33.2665C24.4897 34.8675 24 36.6993 24 38.6456C24 44.9164 29.0836 50 35.3544 50C41.6253 50 46.7089 44.9164 46.7089 38.6456C46.7089 36.2989 45.997 34.1185 44.7774 32.3086L44.7174 32.1885C44.6369 32.0276 44.5421 31.8742 44.4341 31.7302L43.8042 30.8904L37.7889 22.3128Z" fill="#2BBFDD"/>
<path fill-rule="evenodd" clip-rule="evenodd" d="M34.1254 42.0328C37.1879 42.0328 39.6706 39.5501 39.6706 36.4876V36.4876C39.6706 36.3889 39.786 36.3336 39.8575 36.4016C40.7183 37.2194 41.2549 38.3752 41.2549 39.6563C41.2549 42.1355 39.2451 44.1452 36.7659 44.1452C35.5541 44.1452 34.4543 43.665 33.6467 42.8844C33.3006 42.55 33.6441 42.0328 34.1254 42.0328V42.0328Z" fill="white"/>
<circle cx="35" cy="35" r="31" stroke="#2BBFDD" stroke-width="8" stroke-dasharray="4 4"/>
</svg>
