<svg width="70" height="70" viewBox="0 0 70 70" fill="none" xmlns="http://www.w3.org/2000/svg">
<circle cx="35" cy="35" r="31" stroke="#F5C113" stroke-width="8" stroke-dasharray="4 4"/>
<path fill-rule="evenodd" clip-rule="evenodd" d="M36.8855 36.0043L36.8182 36.0909L35.0362 31.1903C35.024 31.2129 35.012 31.2356 35 31.2583C33.669 28.7266 31.0134 27 27.9545 27C23.5614 27 20 30.5614 20 34.9545C20 39.3477 23.5614 42.9091 27.9545 42.9091C29.5293 42.9091 30.9972 42.4515 32.2325 41.662L30.7384 39.4797C29.9903 39.9256 29.116 40.1818 28.1818 40.1818C25.4204 40.1818 23.1818 37.9432 23.1818 35.1818C23.1818 32.4204 25.4204 30.1818 28.1818 30.1818C30.9432 30.1818 33.1818 32.4204 33.1818 35.1818L34.9568 38.7318C34.9714 38.7049 34.9858 38.6779 35 38.6508C36.331 41.1825 38.9866 42.9091 42.0455 42.9091C46.4386 42.9091 50 39.3477 50 34.9545C50 30.5614 46.4386 27 42.0455 27C40.7662 27 39.5575 27.302 38.4867 27.8385L40.0514 30.5029C40.6007 30.2954 41.1962 30.1818 41.8182 30.1818C44.5796 30.1818 46.8182 32.4204 46.8182 35.1818C46.8182 37.9432 44.5796 40.1818 41.8182 40.1818C39.3369 40.1818 37.2778 38.3744 36.8855 36.0043Z" fill="#F5C113"/>
</svg>
