<svg width="70" height="72" viewBox="0 0 70 72" fill="none" xmlns="http://www.w3.org/2000/svg">
<path d="M24.318 29.286C25.814 29.286 27.038 28.096 27.038 26.6C27.038 25.104 25.814 23.88 24.318 23.88C22.822 23.88 21.632 25.104 21.632 26.6C21.632 28.096 22.822 29.286 24.318 29.286ZM21.836 46.354C21.836 46.694 22.142 47 22.482 47H26.222C26.562 47 26.868 46.694 26.868 46.354V34.046C26.868 33.672 26.562 33.4 26.222 33.4H22.482C22.142 33.4 21.836 33.672 21.836 34.046V46.354ZM29.8212 42.206H39.7832V46.354C39.7832 46.694 40.0892 47 40.4292 47H44.0672C44.4072 47 44.7132 46.694 44.7132 46.354L44.6792 42.172H47.3652C47.7392 42.172 48.0112 41.866 48.0112 41.526V38.704C48.0112 38.364 47.7392 38.092 47.3652 38.092H44.6792L44.6452 24.152C44.6452 23.778 44.3392 23.506 43.9992 23.506H41.5512C41.2452 23.506 41.1432 23.608 41.0412 23.71L29.1752 37.956V41.56C29.1752 41.9 29.4472 42.206 29.8212 42.206ZM34.5132 37.99L39.9192 31.666V37.99H34.5132Z" fill="white"/>
<circle cx="35" cy="35" r="31" stroke="#F5C113" stroke-width="8" stroke-dasharray="4 4"/>
</svg>
