<svg width="70" height="70" viewBox="0 0 70 70" fill="none" xmlns="http://www.w3.org/2000/svg">
<circle cx="35" cy="35" r="31" stroke="#9C3E96" stroke-width="8" stroke-dasharray="4 4"/>
<circle cx="35.0001" cy="35" r="3.94737" fill="#9C3E96"/>
<rect x="33.158" y="20" width="3.68421" height="9.47368" rx="1.84211" fill="#9C3E96"/>
<rect x="23.158" y="25.8261" width="3.68421" height="9.47368" rx="1.84211" transform="rotate(-46.4048 23.158 25.8261)" fill="#9C3E96"/>
<rect x="37.8948" y="40.5629" width="3.68421" height="9.47369" rx="1.84211" transform="rotate(-46.4048 37.8948 40.5629)" fill="#9C3E96"/>
<rect x="44.2288" y="22.6316" width="3.68421" height="9.47368" rx="1.84211" transform="rotate(41.9593 44.2288 22.6316)" fill="#9C3E96"/>
<rect x="29.4919" y="37.8947" width="3.68421" height="9.47368" rx="1.84211" transform="rotate(41.9593 29.4919 37.8947)" fill="#9C3E96"/>
<rect x="50" y="33.1579" width="3.68421" height="9.47368" rx="1.84211" transform="rotate(90 50 33.1579)" fill="#9C3E96"/>
<rect x="29.4736" y="33.1579" width="3.68421" height="9.47368" rx="1.84211" transform="rotate(90 29.4736 33.1579)" fill="#9C3E96"/>
<rect x="33.158" y="40.5263" width="3.68421" height="9.47368" rx="1.84211" fill="#9C3E96"/>
</svg>
