<svg height="98" viewBox="0 0 408 98" width="408" xmlns="http://www.w3.org/2000/svg" xmlns:xlink="http://www.w3.org/1999/xlink"><mask id="a" fill="#fff"><path d="m.48669917.637h152.90337983v49.8957h-152.90337983z" fill="#fff" fill-rule="evenodd"/></mask><mask id="b" fill="#fff"><path d="m.3096.3453h20.457v33.6547h-20.457z" fill="#fff" fill-rule="evenodd"/></mask><mask id="c" fill="#fff"><path d="m.0612.3451h59.019v33.6549h-59.019z" fill="#fff" fill-rule="evenodd"/></mask><mask id="d" fill="#fff"><path d="m.4938.3455h49.596v33.6545h-49.596z" fill="#fff" fill-rule="evenodd"/></mask><g fill="none" fill-rule="evenodd" transform="translate(0 -1)"><path d="m149.543.6367h-28.011c-2.702.133-4.635 1.175-5.784 3.122 0 0-9.17 12.836-13.76 17.732-17.439 18.607-19.863 19.62-25.05 20-5.184-.38-7.611-1.393-25.05-20-4.586-4.896-13.758-17.732-13.758-17.732-1.15-1.947-3.081-2.989-5.786-3.122h-28.009c-3.589.133-4.665 1.753-3.239 4.86 0 0 51.399 35.355 62.332 40.91 6.618 3.363 11.61 3.985 13.229 4.101v.025s.099 0 .281-.009c.185.009.285.009.285.009v-.025c1.619-.116 6.608-.738 13.225-4.101 10.934-5.555 62.334-40.91 62.334-40.91 1.424-3.107.348-4.727-3.239-4.86" fill="#005470" mask="url(#a)" transform="translate(126 .3633)"/><path d="m202.9414 25.7149c7.777 0 11.668-4.002 11.668-12.012 0-8.008-4.095-11.96-12.275-11.845-8.125.232-12.187 4.297-12.187 12.19 0 8.01 4.266 11.897 12.794 11.667" fill="#f4811f"/><g fill="#005470"><path d="m80.9482 65.1973c0 .163-.1.327-.294.49l-36.941 32.379c-.199.164-.46.246-.786.246h-5.496c-.327 0-.573-.082-.736-.246l-36.401-32.379c-.197-.163-.294-.327-.294-.49 0-.359.344-.54 1.03-.54h23.059c.326 0 .571.083.734.246l24.873 21.585 24.579-21.585c.195-.163.457-.246.786-.246h4.855c.686 0 1.032.181 1.032.54"/><path d="m20.7666 33.3613c0 .426-.312.639-.931.639h-18.544c-.655 0-.982-.213-.982-.639v-32.377c0-.425.327-.639.982-.639h18.544c.619 0 .931.214.931.639z" mask="url(#b)" transform="translate(84 64.3633)"/><path d="m176.5205 97.8233c0 .361-.345.54-1.031.54h-19.624c-.325 0-.572-.082-.735-.246l-19.036-16.631v-3.727c0-.425.312-.639.933-.639h6.672c1.243 0 2.354-.246 3.337-.734 1.209-.624 1.815-1.489 1.815-2.601 0-1.146-.606-2.012-1.815-2.601-.95-.458-2.063-.687-3.337-.687h-10.548v27.227c0 .427-.327.639-.981.639h-18.546c-.619 0-.93-.212-.93-.639v-32.377c0-.425.311-.639.93-.639h44.4c4.972 0 8.423 1.701 10.351 5.103.656 1.177.981 2.419.981 3.728 0 2.584-1.144 4.726-3.434 6.427-1.896 1.439-4.251 2.387-7.064 2.846l17.368 14.521c.195.164.294.327.294.49"/><path d="m228.2724 69.9082c0 .393-.31.589-.933.589h-14.912v27.227c0 .427-.31.639-.932.639h-18.593c-.622 0-.933-.212-.933-.639v-27.227h-14.424c-.621 0-.932-.196-.932-.589v-4.561c0-.425.311-.639.932-.639h49.794c.623 0 .933.214.933.639z"/><path d="m290.9541 81.2403c0 4.842-1.425 8.865-4.271 12.07-2.941 3.37-6.818 5.053-11.625 5.053h-26.542c-4.807 0-8.684-1.683-11.626-5.053-2.846-3.205-4.271-7.228-4.271-12.07v-15.893c0-.425.329-.639.984-.639h19.132c.623 0 .933.214.933.639v18.199c0 2.749.262 4.743.785 5.986.783 2.028 2.322 3.042 4.612 3.042h16.239c4.708 0 7.065-3.991 7.065-11.969v-15.258c0-.425.31-.639.933-.639h6.719c.621 0 .933.214.933.639z"/><path d="m37.1982 19.1831v-5.347c0-2.648-.311-4.497-.93-5.545-.852-1.437-2.472-2.157-4.858-2.157h-4.565c-2.254 0-3.774.768-4.56 2.306-.556 1.046-.834 2.846-.834 5.396v5.347c0 2.715.263 4.711.786 5.985.817 2.029 2.354 3.043 4.608 3.043h4.565c2.386 0 4.021-.981 4.906-2.944.588-1.274.882-3.302.882-6.084m21.882-2.011c0 4.809-1.505 8.814-4.514 12.021-3.009 3.203-6.918 4.807-11.724 4.807h-26.542c-4.776 0-8.675-1.604-11.7-4.807-3.028-3.207-4.539-7.212-4.539-12.021 0-4.906 1.489-8.936 4.465-12.093 2.974-3.156 6.9-4.734 11.774-4.734h26.542c4.87 0 8.795 1.578 11.772 4.734 2.978 3.157 4.466 7.187 4.466 12.093" mask="url(#c)" transform="translate(295 64.3633)"/><path d="m50.0898 27.3775c0 2.617-2.401 4.481-7.209 5.592-2.912.687-6.282 1.031-10.108 1.031h-29.73c-.655 0-.98-.213-.98-.639v-4.513c0-.425.325-.638.98-.638h22.862l-18.103-11.185c-4.874-2.975-7.308-5.936-7.308-8.88 0-1.896.996-3.514 2.99-4.855 1.504-1.048 3.353-1.834 5.544-2.358 1.767-.391 3.632-.587 5.593-.587h31.547c.619 0 .933.214.933.638v4.561c0 .394-.314.59-.933.59h-23.108l18.055 11.333c5.983 3.728 8.975 7.032 8.975 9.91" mask="url(#d)" transform="translate(357 64.3633)"/></g></g></svg>